<mxfile host="app.diagrams.net" agent="Mozilla/5.0 (Windows NT 10.0; Win64; x64) AppleWebKit/537.36 (KHTML, like Gecko) Chrome/129.0.0.0 Safari/537.36 Edg/129.0.0.0" version="24.7.17">
  <diagram name="Página-1" id="Ig5UBsEkHlgPFnOh_NXh">
    <mxGraphModel dx="2263" dy="784" grid="1" gridSize="10" guides="1" tooltips="1" connect="1" arrows="1" fold="1" page="1" pageScale="1" pageWidth="827" pageHeight="1169" math="0" shadow="0">
      <root>
        <mxCell id="0" />
        <mxCell id="1" parent="0" />
        <mxCell id="pWgX_WDUC5W7JLDsVcRh-1" value="" style="whiteSpace=wrap;html=1;aspect=fixed;fillStyle=auto;" vertex="1" parent="1">
          <mxGeometry x="-20" y="50" width="810" height="810" as="geometry" />
        </mxCell>
        <mxCell id="pWgX_WDUC5W7JLDsVcRh-3" value="" style="rounded=0;whiteSpace=wrap;html=1;fillColor=#f5f5f5;fontColor=#333333;strokeColor=#666666;" vertex="1" parent="1">
          <mxGeometry x="-20" y="20" width="810" height="70" as="geometry" />
        </mxCell>
        <mxCell id="pWgX_WDUC5W7JLDsVcRh-9" value="Projetos" style="text;html=1;align=center;verticalAlign=middle;whiteSpace=wrap;rounded=0;" vertex="1" parent="1">
          <mxGeometry x="160" y="40" width="60" height="30" as="geometry" />
        </mxCell>
        <mxCell id="pWgX_WDUC5W7JLDsVcRh-10" value="Contato" style="text;html=1;align=center;verticalAlign=middle;whiteSpace=wrap;rounded=0;" vertex="1" parent="1">
          <mxGeometry x="370" y="40" width="60" height="30" as="geometry" />
        </mxCell>
        <mxCell id="pWgX_WDUC5W7JLDsVcRh-11" value="Sobre Mim" style="text;html=1;align=center;verticalAlign=middle;whiteSpace=wrap;rounded=0;" vertex="1" parent="1">
          <mxGeometry x="580" y="40" width="60" height="30" as="geometry" />
        </mxCell>
        <mxCell id="pWgX_WDUC5W7JLDsVcRh-12" value="BREVE APRESENTAÇÃO&amp;nbsp;" style="text;html=1;align=center;verticalAlign=middle;whiteSpace=wrap;rounded=0;" vertex="1" parent="1">
          <mxGeometry x="40" y="290" width="690" height="120" as="geometry" />
        </mxCell>
        <mxCell id="pWgX_WDUC5W7JLDsVcRh-13" value="MINHA&amp;nbsp;&lt;div&gt;FOTO&lt;/div&gt;" style="ellipse;whiteSpace=wrap;html=1;" vertex="1" parent="1">
          <mxGeometry x="325" y="170" width="100" height="80" as="geometry" />
        </mxCell>
        <mxCell id="pWgX_WDUC5W7JLDsVcRh-14" value="" style="rounded=0;whiteSpace=wrap;html=1;" vertex="1" parent="1">
          <mxGeometry x="-20" y="790" width="810" height="70" as="geometry" />
        </mxCell>
        <mxCell id="pWgX_WDUC5W7JLDsVcRh-15" value="Suporte" style="text;html=1;align=center;verticalAlign=middle;whiteSpace=wrap;rounded=0;" vertex="1" parent="1">
          <mxGeometry x="30" y="810" width="60" height="30" as="geometry" />
        </mxCell>
      </root>
    </mxGraphModel>
  </diagram>
</mxfile>
